<svg id="visual" viewBox="0 0 675 900" width="675" height="900" xmlns="http://www.w3.org/2000/svg" xmlns:xlink="http://www.w3.org/1999/xlink" version="1.1"><rect x="0" y="0" width="675" height="900" fill="#3cc6b7"></rect><defs><linearGradient id="grad1_0" x1="0%" y1="0%" x2="100%" y2="100%"><stop offset="30%" stop-color="#f5f7fb" stop-opacity="1"></stop><stop offset="70%" stop-color="#f5f7fb" stop-opacity="1"></stop></linearGradient></defs><defs><linearGradient id="grad1_1" x1="0%" y1="0%" x2="100%" y2="100%"><stop offset="30%" stop-color="#f5f7fb" stop-opacity="1"></stop><stop offset="70%" stop-color="#a2ddf1" stop-opacity="1"></stop></linearGradient></defs><defs><linearGradient id="grad1_2" x1="0%" y1="0%" x2="100%" y2="100%"><stop offset="30%" stop-color="#3cc6b7" stop-opacity="1"></stop><stop offset="70%" stop-color="#a2ddf1" stop-opacity="1"></stop></linearGradient></defs><defs><linearGradient id="grad2_0" x1="0%" y1="0%" x2="100%" y2="100%"><stop offset="30%" stop-color="#f5f7fb" stop-opacity="1"></stop><stop offset="70%" stop-color="#f5f7fb" stop-opacity="1"></stop></linearGradient></defs><defs><linearGradient id="grad2_1" x1="0%" y1="0%" x2="100%" y2="100%"><stop offset="30%" stop-color="#a2ddf1" stop-opacity="1"></stop><stop offset="70%" stop-color="#f5f7fb" stop-opacity="1"></stop></linearGradient></defs><defs><linearGradient id="grad2_2" x1="0%" y1="0%" x2="100%" y2="100%"><stop offset="30%" stop-color="#a2ddf1" stop-opacity="1"></stop><stop offset="70%" stop-color="#3cc6b7" stop-opacity="1"></stop></linearGradient></defs><g transform="translate(675, 0)"><path d="M0 450C-64.3 439.6 -128.7 429.2 -160.3 387.1C-192 345 -191.1 271.1 -236.2 236.2C-281.3 201.2 -372.4 205.1 -415.7 172.2C-459.1 139.3 -454.5 69.7 -450 0L0 0Z" fill="#6dd2db"></path><path d="M0 300C-42.9 293.1 -85.8 286.1 -106.9 258.1C-128 230 -127.4 180.8 -157.4 157.4C-187.5 134.1 -248.3 136.7 -277.2 114.8C-306 92.9 -303 46.4 -300 0L0 0Z" fill="#d2e9fa"></path><path d="M0 150C-21.4 146.5 -42.9 143.1 -53.4 129C-64 115 -63.7 90.4 -78.7 78.7C-93.8 67.1 -124.1 68.4 -138.6 57.4C-153 46.4 -151.5 23.2 -150 0L0 0Z" fill="#f5f7fb"></path></g><g transform="translate(0, 900)"><path d="M0 -450C39.7 -400.4 79.5 -350.8 139.7 -337.2C199.9 -323.6 280.6 -346 318.2 -318.2C355.8 -290.4 350.2 -212.5 364.9 -151.2C379.7 -89.8 414.9 -44.9 450 0L0 0Z" fill="#6dd2db"></path><path d="M0 -300C26.5 -266.9 53 -233.9 93.1 -224.8C133.3 -215.7 187.1 -230.6 212.1 -212.1C237.2 -193.6 233.4 -141.7 243.3 -100.8C253.1 -59.8 276.6 -29.9 300 0L0 0Z" fill="#d2e9fa"></path><path d="M0 -150C13.2 -133.5 26.5 -116.9 46.6 -112.4C66.6 -107.9 93.5 -115.3 106.1 -106.1C118.6 -96.8 116.7 -70.8 121.6 -50.4C126.6 -29.9 138.3 -15 150 0L0 0Z" fill="#f5f7fb"></path></g></svg>